<mxfile host="app.diagrams.net" modified="2023-11-22T23:38:17.595Z" agent="Mozilla/5.0 (Windows NT 10.0; Win64; x64) AppleWebKit/537.36 (KHTML, like Gecko) Chrome/118.0.0.0 Safari/537.36" version="21.8.0" etag="nNCtcWuZvrZwACrhxD0g" type="github">
  <diagram name="PÃ¡gina-1" id="r-ycazhMcbj9Kvu7kjQR">
    <mxGraphModel>
      <root>
        <mxCell id="0" />
        <mxCell id="1" parent="0" />
      </root>
    </mxGraphModel>
  </diagram>
</mxfile>
